<?xml version="1.0" encoding="UTF-8" standalone="no"?>
<!-- Generator: Adobe Illustrator 17.0.0, SVG Export Plug-In . SVG Version: 6.00 Build 0)  -->

<svg
   xmlns:dc="http://purl.org/dc/elements/1.1/"
   xmlns:cc="http://creativecommons.org/ns#"
   xmlns:rdf="http://www.w3.org/1999/02/22-rdf-syntax-ns#"
   xmlns:svg="http://www.w3.org/2000/svg"
   xmlns="http://www.w3.org/2000/svg"
   xmlns:sodipodi="http://sodipodi.sourceforge.net/DTD/sodipodi-0.dtd"
   xmlns:inkscape="http://www.inkscape.org/namespaces/inkscape"
   version="1.1"
   id="Layer_1"
   x="0px"
   y="0px"
   width="400.444"
   height="83.523003"
   viewBox="0 0 400.444 83.523002"
   enable-background="new 0 0 699.07 345.035"
   xml:space="preserve"
   inkscape:version="0.91 r13725"
   sodipodi:docname="logo.svg"><metadata
     id="metadata4251"><rdf:RDF><cc:Work
         rdf:about=""><dc:format>image/svg+xml</dc:format><dc:type
           rdf:resource="http://purl.org/dc/dcmitype/StillImage" /><dc:title></dc:title></cc:Work></rdf:RDF></metadata><defs
     id="defs4249" /><sodipodi:namedview
     pagecolor="#5d0000"
     bordercolor="#666666"
     borderopacity="1"
     objecttolerance="10"
     gridtolerance="10"
     guidetolerance="10"
     inkscape:pageopacity="0"
     inkscape:pageshadow="2"
     inkscape:window-width="1219"
     inkscape:window-height="759"
     id="namedview4247"
     showgrid="false"
     fit-margin-top="1"
     fit-margin-left="1"
     fit-margin-bottom="1"
     fit-margin-right="1"
     showborder="false"
     inkscape:zoom="1.1652438"
     inkscape:cx="163.00483"
     inkscape:cy="35.275785"
     inkscape:window-x="107"
     inkscape:window-y="159"
     inkscape:window-maximized="0"
     inkscape:current-layer="Layer_1" /><g
     id="g4223"
     transform="translate(-201.404,-119.043)"><path
       d="m 245.436,160.642 c -0.767,-5.078 -4.902,-8.123 -4.927,-8.139 -3.521,-3.183 -7.896,-4.797 -13.002,-4.797 -6.821,0 -12.6,2.957 -12.648,2.982 -0.082,0.037 -2.019,0.92 -3.291,1.779 -0.993,0.672 -1.856,1.355 -2.305,1.723 l 0.132,-34.147 -6.991,0 0,81.523 0.336,-0.317 c 10.063,-9.499 21.54,-16.517 21.652,-16.585 12.738,-7.447 17.737,-13.434 17.792,-13.501 2.674,-3.561 3.769,-7.1 3.252,-10.521 z m -27.739,20.405 c -0.25,0.225 -5.801,4.828 -7.842,7.179 l 0,-26.099 c 0.3,-0.562 3.756,-6.733 10.792,-6.733 1.06,0 2.165,0.14 3.271,0.413 0.056,0.019 5.56,1.941 4.986,8.768 -0.004,0.075 -0.466,7.736 -11.207,16.472 z"
       id="path4225"
       inkscape:connector-curvature="0"
       style="fill:#ffffff" /><g
       id="g4227"><path
         d="m 289.677,177.544 -28.581,0 c 0.182,2.651 1.393,4.787 3.632,6.409 2.238,1.623 4.798,2.433 7.677,2.433 4.569,0 8.041,-1.439 10.418,-4.318 l 4.387,4.798 c -3.93,4.067 -9.047,6.1 -15.353,6.1 -5.118,0 -9.47,-1.702 -13.057,-5.106 -3.588,-3.404 -5.38,-7.973 -5.38,-13.708 0,-5.734 1.827,-10.292 5.484,-13.674 3.655,-3.381 7.961,-5.072 12.92,-5.072 4.957,0 9.173,1.497 12.646,4.489 3.472,2.993 5.209,7.117 5.209,12.372 l 0,5.277 z m -28.582,-6.032 20.905,0 c 0,-3.061 -0.96,-5.415 -2.879,-7.06 -1.919,-1.645 -4.284,-2.468 -7.094,-2.468 -2.81,0 -5.335,0.857 -7.574,2.57 -2.239,1.715 -3.358,4.035 -3.358,6.958 z"
         id="path4229"
         inkscape:connector-curvature="0"
         style="fill:#ffffff" /><path
         d="m 327.648,192.417 -6.991,0 0,-4.866 c -3.016,3.61 -7.06,5.415 -12.131,5.415 -3.793,0 -6.935,-1.073 -9.424,-3.221 -2.491,-2.147 -3.736,-5.014 -3.736,-8.602 0,-3.587 1.325,-6.272 3.975,-8.054 2.65,-1.782 6.237,-2.673 10.761,-2.673 l 9.938,0 0,-1.371 c 0,-4.843 -2.696,-7.265 -8.088,-7.265 -3.382,0 -6.9,1.234 -10.555,3.701 l -3.427,-4.798 c 4.432,-3.518 9.459,-5.278 15.079,-5.278 4.295,0 7.802,1.086 10.521,3.256 2.718,2.171 4.078,5.586 4.078,10.247 l 0,23.509 z m -7.676,-13.571 0,-3.084 -8.636,0 c -5.529,0 -8.294,1.737 -8.294,5.209 0,1.782 0.686,3.142 2.056,4.078 1.371,0.937 3.278,1.405 5.723,1.405 2.444,0 4.58,-0.685 6.409,-2.056 1.827,-1.371 2.742,-3.221 2.742,-5.552 z"
         id="path4231"
         inkscape:connector-curvature="0"
         style="fill:#ffffff" /><path
         d="m 347.387,162.122 0,18.506 c 0,1.737 0.456,3.119 1.371,4.147 0.913,1.028 2.193,1.542 3.838,1.542 1.645,0 3.221,-0.799 4.729,-2.399 l 3.153,5.415 c -2.697,2.423 -5.678,3.633 -8.945,3.633 -3.267,0 -6.055,-1.131 -8.362,-3.393 -2.308,-2.262 -3.461,-5.312 -3.461,-9.15 l 0,-18.3 -4.592,0 0,-6.169 4.592,0 0,-11.446 7.676,0 0,11.446 9.596,0 0,6.169 -9.595,0 z"
         id="path4233"
         inkscape:connector-curvature="0"
         style="fill:#ffffff" /><path
         d="m 411.335,181.519 c 0,3.473 -1.257,6.249 -3.77,8.328 -2.514,2.08 -5.735,3.119 -9.664,3.119 -2.651,0 -5.404,-0.48 -8.259,-1.439 -2.856,-0.96 -5.38,-2.307 -7.574,-4.044 l 3.701,-5.963 c 4.25,3.199 8.362,4.798 12.337,4.798 1.736,0 3.107,-0.399 4.113,-1.199 1.004,-0.799 1.508,-1.816 1.508,-3.05 0,-1.827 -2.422,-3.472 -7.266,-4.935 -0.366,-0.137 -0.64,-0.228 -0.822,-0.274 -7.586,-2.056 -11.378,-5.483 -11.378,-10.281 0,-3.381 1.313,-6.088 3.941,-8.122 2.627,-2.033 6.042,-3.05 10.247,-3.05 4.204,0 8.179,1.234 11.926,3.701 l -2.879,5.689 c -2.971,-1.964 -6.192,-2.947 -9.664,-2.947 -1.828,0 -3.314,0.332 -4.455,0.994 -1.143,0.663 -1.714,1.657 -1.714,2.982 0,1.189 0.593,2.056 1.782,2.604 0.822,0.411 1.976,0.8 3.461,1.165 1.484,0.366 2.798,0.731 3.941,1.097 1.141,0.366 2.25,0.778 3.324,1.234 1.073,0.457 2.228,1.097 3.461,1.919 2.47,1.643 3.703,4.202 3.703,7.674 z"
         id="path4235"
         inkscape:connector-curvature="0"
         style="fill:#ffffff" /><path
         d="m 436.215,192.966 c -5.072,0 -9.436,-1.724 -13.092,-5.175 -3.656,-3.45 -5.483,-7.962 -5.483,-13.537 0,-5.574 1.907,-10.11 5.723,-13.605 3.814,-3.496 8.465,-5.243 13.948,-5.243 5.483,0 10.12,1.897 13.914,5.689 l -4.524,5.552 c -3.153,-2.742 -6.329,-4.113 -9.527,-4.113 -3.199,0 -5.975,1.062 -8.328,3.187 -2.354,2.125 -3.53,4.866 -3.53,8.225 0,3.359 1.166,6.203 3.496,8.533 2.33,2.33 5.197,3.496 8.602,3.496 3.404,0 6.614,-1.553 9.63,-4.661 l 4.524,4.935 c -4.432,4.478 -9.55,6.717 -15.353,6.717 z"
         id="path4237"
         inkscape:connector-curvature="0"
         style="fill:#ffffff" /><path
         d="m 467.195,172.677 0,19.74 -7.676,0 0,-50.789 7.676,0 0,20.974 c 1.097,-2.238 2.753,-3.998 4.969,-5.278 2.216,-1.279 4.603,-1.919 7.163,-1.919 4.112,0 7.436,1.257 9.972,3.77 2.536,2.514 3.804,6.146 3.804,10.898 l 0,22.344 -7.676,0 0,-20.014 c 0,-6.717 -2.788,-10.075 -8.362,-10.075 -2.651,0 -4.958,0.88 -6.923,2.639 -1.965,1.759 -2.947,4.329 -2.947,7.71 z"
         id="path4239"
         inkscape:connector-curvature="0"
         style="fill:#ffffff" /><path
         d="m 534.296,187.517 c -3.656,3.633 -8.225,5.449 -13.708,5.449 -5.483,0 -10.053,-1.816 -13.708,-5.449 -3.656,-3.633 -5.483,-8.076 -5.483,-13.331 0,-5.254 1.827,-9.698 5.483,-13.331 3.655,-3.633 8.225,-5.449 13.708,-5.449 5.483,0 10.052,1.816 13.708,5.449 3.655,3.633 5.483,8.077 5.483,13.331 0,5.254 -1.828,9.698 -5.483,13.331 z m -21.967,-4.73 c 2.17,2.217 4.923,3.324 8.259,3.324 3.335,0 6.088,-1.107 8.259,-3.324 2.17,-2.216 3.256,-5.083 3.256,-8.602 0,-3.518 -1.086,-6.385 -3.256,-8.602 -2.171,-2.216 -4.924,-3.324 -8.259,-3.324 -3.336,0 -6.089,1.108 -8.259,3.324 -2.171,2.217 -3.256,5.084 -3.256,8.602 0,3.519 1.085,6.386 3.256,8.602 z"
         id="path4241"
         inkscape:connector-curvature="0"
         style="fill:#ffffff" /><path
         d="m 578.984,187.517 c -3.656,3.633 -8.225,5.449 -13.708,5.449 -5.483,0 -10.053,-1.816 -13.708,-5.449 -3.656,-3.633 -5.483,-8.076 -5.483,-13.331 0,-5.254 1.827,-9.698 5.483,-13.331 3.655,-3.633 8.225,-5.449 13.708,-5.449 5.483,0 10.052,1.816 13.708,5.449 3.655,3.633 5.483,8.077 5.483,13.331 10e-4,5.254 -1.828,9.698 -5.483,13.331 z m -21.967,-4.73 c 2.17,2.217 4.923,3.324 8.259,3.324 3.335,0 6.088,-1.107 8.259,-3.324 2.17,-2.216 3.256,-5.083 3.256,-8.602 0,-3.518 -1.086,-6.385 -3.256,-8.602 -2.171,-2.216 -4.924,-3.324 -8.259,-3.324 -3.336,0 -6.089,1.108 -8.259,3.324 -2.171,2.217 -3.256,5.084 -3.256,8.602 0,3.519 1.085,6.386 3.256,8.602 z"
         id="path4243"
         inkscape:connector-curvature="0"
         style="fill:#ffffff" /><path
         d="m 600.848,201.566 -7.676,-6.219 0,-75.304 7.676,0 0,81.523 z"
         id="path4245"
         inkscape:connector-curvature="0"
         style="fill:#ffffff" /></g></g></svg>