<?xml version="1.0" encoding="UTF-8" standalone="no"?>
<!-- Generator: Adobe Illustrator 17.0.0, SVG Export Plug-In . SVG Version: 6.00 Build 0)  -->

<svg
   xmlns:dc="http://purl.org/dc/elements/1.1/"
   xmlns:cc="http://creativecommons.org/ns#"
   xmlns:rdf="http://www.w3.org/1999/02/22-rdf-syntax-ns#"
   xmlns:svg="http://www.w3.org/2000/svg"
   xmlns="http://www.w3.org/2000/svg"
   xmlns:sodipodi="http://sodipodi.sourceforge.net/DTD/sodipodi-0.dtd"
   xmlns:inkscape="http://www.inkscape.org/namespaces/inkscape"
   version="1.1"
   id="Layer_1"
   x="0px"
   y="0px"
   width="167.87398"
   height="317.108"
   viewBox="0 0 167.87398 317.108"
   enable-background="new 0 0 400 400"
   xml:space="preserve"
   inkscape:version="0.91 r13725"
   sodipodi:docname="logo-icon.svg"><metadata
     id="metadata9"><rdf:RDF><cc:Work
         rdf:about=""><dc:format>image/svg+xml</dc:format><dc:type
           rdf:resource="http://purl.org/dc/dcmitype/StillImage" /><dc:title></dc:title></cc:Work></rdf:RDF></metadata><defs
     id="defs7" /><sodipodi:namedview
     pagecolor="#ffffff"
     bordercolor="#666666"
     borderopacity="1"
     objecttolerance="10"
     gridtolerance="10"
     guidetolerance="10"
     inkscape:pageopacity="0"
     inkscape:pageshadow="2"
     inkscape:window-width="1163"
     inkscape:window-height="844"
     id="namedview5"
     showgrid="false"
     fit-margin-top="0"
     fit-margin-left="0"
     fit-margin-right="0"
     fit-margin-bottom="0"
     inkscape:zoom="0.59"
     inkscape:cx="83.937"
     inkscape:cy="158.554"
     inkscape:window-x="335"
     inkscape:window-y="60"
     inkscape:window-maximized="0"
     inkscape:current-layer="Layer_1" /><path
     d="m 167.39,157.923 c -2.984,-19.752 -19.069,-31.595 -19.165,-31.66 -13.698,-12.382 -30.714,-18.661 -50.577,-18.661 -26.533,0 -49.01,11.501 -49.197,11.599 -0.319,0.145 -7.855,3.578 -12.802,6.922 -3.865,2.613 -7.22,5.272 -8.967,6.703 L 27.194,0 0,0 0,317.108 1.307,315.874 c 39.143,-36.95 83.787,-64.249 84.223,-64.514 49.549,-28.968 68.995,-52.256 69.206,-52.514 10.407,-13.848 14.664,-27.616 12.654,-40.923 z m -107.9,79.371 c -0.974,0.876 -22.564,18.78 -30.503,27.925 l 0,-101.522 c 1.166,-2.187 14.608,-26.191 41.98,-26.191 4.123,0 8.423,0.546 12.722,1.606 0.216,0.073 21.626,7.55 19.393,34.104 -0.013,0.299 -1.812,30.099 -43.592,64.078 z"
     id="path3"
     inkscape:connector-curvature="0"
     style="fill:#ffffff" /></svg>