<?xml version="1.0" encoding="UTF-8" standalone="no"?>
<svg
   xmlns:dc="http://purl.org/dc/elements/1.1/"
   xmlns:cc="http://creativecommons.org/ns#"
   xmlns:rdf="http://www.w3.org/1999/02/22-rdf-syntax-ns#"
   xmlns:svg="http://www.w3.org/2000/svg"
   xmlns="http://www.w3.org/2000/svg"
   xmlns:sodipodi="http://sodipodi.sourceforge.net/DTD/sodipodi-0.dtd"
   xmlns:inkscape="http://www.inkscape.org/namespaces/inkscape"
   height="20"
   id="Layer_1"
   version="1.1"
   viewBox="0 0 28 20"
   width="28"
   xml:space="preserve"
   inkscape:version="0.91 r13725"
   sodipodi:docname="menu-icon.svg"><metadata
     id="metadata9"><rdf:RDF><cc:Work
         rdf:about=""><dc:format>image/svg+xml</dc:format><dc:type
           rdf:resource="http://purl.org/dc/dcmitype/StillImage" /><dc:title /></cc:Work></rdf:RDF></metadata><defs
     id="defs7" /><sodipodi:namedview
     pagecolor="#ffffff"
     bordercolor="#666666"
     borderopacity="1"
     objecttolerance="10"
     gridtolerance="10"
     guidetolerance="10"
     inkscape:pageopacity="0"
     inkscape:pageshadow="2"
     inkscape:window-width="892"
     inkscape:window-height="480"
     id="namedview5"
     showgrid="false"
     fit-margin-top="0"
     fit-margin-left="0"
     fit-margin-right="0"
     fit-margin-bottom="0"
     inkscape:zoom="7.375"
     inkscape:cx="13.864407"
     inkscape:cy="10"
     inkscape:window-x="28"
     inkscape:window-y="73"
     inkscape:window-maximized="0"
     inkscape:current-layer="Layer_1" /><path
     d="M 2,4 26,4 C 27.104,4 28,3.104 28,2 28,0.896 27.104,0 26,0 L 2,0 C 0.896,0 0,0.896 0,2 0,3.104 0.896,4 2,4 Z M 26,8 2,8 c -1.104,0 -2,0.896 -2,2 0,1.104 0.896,2 2,2 l 24,0 c 1.104,0 2,-0.896 2,-2 0,-1.104 -0.896,-2 -2,-2 z m 0,8 -24,0 c -1.104,0 -2,0.896 -2,2 0,1.104 0.896,2 2,2 l 24,0 c 1.104,0 2,-0.896 2,-2 0,-1.104 -0.896,-2 -2,-2 z"
     id="path3"
     inkscape:connector-curvature="0"
     style="fill:#ffffff" /></svg>